# xmcd
#
# Track frame offsets: 
#        150
#        24236
#        33596
#        57243
#        92307
#        107688
#        143649
#        173078
#        193964
#        212331
#        243897
#        274010
#
# Disc length: 3906 seconds
#
# Revision: 0
# Processed by: cddbd v1.5.2PL0 Copyright (c) Steve Scherf et al.
# Submitted via: ExactAudioCopy v1.0b1
#
DISCID=970f400c
DTITLE=Miklós Spányi, Concerto Armonico, Márta Abráham - Bach (CPE): K
DTITLE=eyboard concertos v. 19
DYEAR=2012
DGENRE=Classical
TTITLE0=Concerto, keyboard, G Major   Adagio - Presto  H 475 
TTITLE1=Concerto, keyboard, G Major   Adagio  H 475 
TTITLE2=Concerto, keyboard, G Major   Allegro  H 475 
TTITLE3=Concerto, keyboard, C Major   Allegro di molto  H 476 
TTITLE4=Concerto, keyboard, C Major   Larghetto  H 476
TTITLE5=Concerto, keyboard, C Major   Allegro  H 476
TTITLE6=Concerto, keyboard, G Major   Allegretto  H 477 
TTITLE7=Concerto, keyboard, G Major   Andantino  H 477 
TTITLE8=Concerto, keyboard, G Major   Allegro  H 477 
TTITLE9=Concerto, keyboard, D Major   Allegretto  H 478
TTITLE10=Concerto, keyboard, D Major   Andantino  H 478 
TTITLE11=Concerto, keyboard, D Major   Allegro  H 478
EXTD=
EXTT0=
EXTT1=
EXTT2=
EXTT3=
EXTT4=
EXTT5=
EXTT6=
EXTT7=
EXTT8=
EXTT9=
EXTT10=
EXTT11=
PLAYORDER=
